<?xml version="1.0" encoding="iso-8859-1"?>
<!-- Generator: Adobe Illustrator 19.0.0, SVG Export Plug-In . SVG Version: 6.00 Build 0)  -->
<svg version="1.1" id="Layer_1" xmlns="http://www.w3.org/2000/svg" xmlns:xlink="http://www.w3.org/1999/xlink" x="0px" y="0px"
	 viewBox="0 0 512 512" style="enable-background:new 0 0 512 512;" xml:space="preserve">
<g>
	<g>
		<path d="M492.042,176.296h-30.141c-11.005,0-19.959,8.953-19.959,19.958v32.838H179.347c0.076-0.672,0.124-1.352,0.124-2.044
			v-20.76c0-9.967-8.109-18.076-18.077-18.076H88.178v-47.796c0-11.005-8.954-19.958-19.958-19.958H19.958
			C8.953,120.459,0,129.412,0,140.417V375.83c0,8.662,7.048,15.71,15.711,15.71h56.756c8.663,0,15.711-7.048,15.711-15.71v-38.054
			h353.762v38.055c0,8.662,7.048,15.71,15.711,15.71h38.636c8.663,0,15.711-7.048,15.711-15.71V196.254
			C512,185.249,503.046,176.296,492.042,176.296z M16.033,140.417c0-2.163,1.76-3.925,3.925-3.925h48.261
			c2.164,0,3.925,1.76,3.925,3.925v98.924H16.033V140.417z M72.145,375.507H16.033v-91.664h56.112V375.507z M72.145,267.81H16.033
			v-12.437h56.112V267.81z M88.178,204.246h73.216c1.127,0,2.044,0.916,2.044,2.043v20.76c0,1.128-0.916,2.044-2.044,2.044H88.178
			V204.246z M441.94,321.742H88.178v-10.549H441.94V321.742z M441.94,295.159H88.178v-50.034H441.94V295.159z M495.967,375.507
			h-37.993V196.254c0-2.163,1.76-3.925,3.926-3.925h30.141c2.164,0,3.926,1.76,3.926,3.925V375.507z"/>
	</g>
</g>
<g>
</g>
<g>
</g>
<g>
</g>
<g>
</g>
<g>
</g>
<g>
</g>
<g>
</g>
<g>
</g>
<g>
</g>
<g>
</g>
<g>
</g>
<g>
</g>
<g>
</g>
<g>
</g>
<g>
</g>
</svg>
