<svg xmlns="http://www.w3.org/2000/svg" viewBox="0 0 64 64" width="64" height="64"><title>bread</title><g class="nc-icon-wrapper" stroke-linecap="square" stroke-linejoin="miter" stroke-width="2" fill="#111111" stroke="#111111"><line data-color="color-2" fill="none" stroke-miterlimit="10" x1="40" y1="16" x2="42" y2="19"/> <line data-color="color-2" fill="none" stroke-miterlimit="10" x1="21" y1="43" x2="24" y2="46"/> <line data-color="color-2" fill="none" stroke-miterlimit="10" x1="43" y1="41" x2="40" y2="44"/> <line data-color="color-2" fill="none" stroke-miterlimit="10" x1="21" y1="18" x2="24" y2="15"/> <line data-color="color-2" fill="none" stroke-miterlimit="10" x1="32" y1="32" x2="30" y2="28"/> <path fill="none" stroke="#111111" stroke-miterlimit="10" d="M50.009,60H13.991 c-1.853,0-3.632-0.792-4.881-2.171c-1.25-1.38-1.871-3.238-1.703-5.1l3.437-30.063L7.65,15.151C5.406,9.872,9.246,4,14.942,4h34.116 c5.696,0,9.536,5.872,7.292,11.151l-3.194,7.515l3.437,30.063c0.168,1.862-0.453,3.72-1.703,5.1C53.641,59.208,51.862,60,50.009,60z "/></g></svg>