<svg xmlns="http://www.w3.org/2000/svg" xmlns:xlink="http://www.w3.org/1999/xlink" viewBox="0 0 232.44 175.75"><defs><style>.cls-1{fill:#098566;}</style></defs><g id="レイヤー_2" data-name="レイヤー 2"><g id="レイヤー_1-2" data-name="レイヤー 1"><image width="1088" height="824" transform="scale(0.21 0.21)" xlink:href="%E3%82%B9%E3%82%AF%E3%83%AA%E3%83%BC%E3%83%B3%E3%82%B7%E3%83%A7%E3%83%83%E3%83%88%202020-08-25%2019.40.53.png"/><path class="cls-1" d="M71.81,167.2V153.86h4.76a6.21,6.21,0,0,1,1.77.24,4,4,0,0,1,1.39.7,3.45,3.45,0,0,1,.91,1.14,3.38,3.38,0,0,1,.33,1.51,2.77,2.77,0,0,1-.43,1.56,3.67,3.67,0,0,1-1.19,1.12,3.61,3.61,0,0,1,1.73,1.21,3.3,3.3,0,0,1,.65,2.09,3.74,3.74,0,0,1-.6,2,3.57,3.57,0,0,1-1.82,1.43,7.17,7.17,0,0,1-1,.24,7.37,7.37,0,0,1-1,.08Zm2.66-7.88h1.32c.31,0,.6,0,.88,0a1.88,1.88,0,0,0,.6-.14,1.68,1.68,0,0,0,.75-.61,1.49,1.49,0,0,0,.23-.77,1.42,1.42,0,0,0-.31-.89,1.79,1.79,0,0,0-.93-.61l-.27,0a2.11,2.11,0,0,0-.38,0l-.42,0H74.47Zm0,5.6h1.92a7.82,7.82,0,0,0,1.1-.06,2.06,2.06,0,0,0,.66-.2,1.6,1.6,0,0,0,.64-.59,1.51,1.51,0,0,0,.2-.73,1.61,1.61,0,0,0-.25-.86,1.84,1.84,0,0,0-.75-.68,2.32,2.32,0,0,0-.73-.23,5.1,5.1,0,0,0-.91-.07H74.47Z"/><path class="cls-1" d="M90.11,167.2l-.1-.76a4.19,4.19,0,0,1-1.44.76,5.7,5.7,0,0,1-1.46.2,3.5,3.5,0,0,1-2.7-1,4.4,4.4,0,0,1-.94-3.08v-5.74h2.62V163a3.13,3.13,0,0,0,.38,1.62,1.41,1.41,0,0,0,1.3.62,2.63,2.63,0,0,0,1.28-.29,6.46,6.46,0,0,0,.84-.55v-6.88h2.62v9.64Z"/><path class="cls-1" d="M96.33,164a3.13,3.13,0,0,0,1,1.07,2.65,2.65,0,0,0,1.53.43,2.69,2.69,0,0,0,1.25-.25.77.77,0,0,0,.45-.69.9.9,0,0,0-.48-.74,5.05,5.05,0,0,0-1.78-.56,9.65,9.65,0,0,1-1.39-.37,3.76,3.76,0,0,1-1.07-.59,2.57,2.57,0,0,1-.68-.86,2.79,2.79,0,0,1-.24-1.2,2.48,2.48,0,0,1,1.07-2.08,4.68,4.68,0,0,1,2.89-.8,5.33,5.33,0,0,1,2.6.53,4.18,4.18,0,0,1,1.48,1.29l-1.84,1.26a3,3,0,0,0-.92-.8,2.53,2.53,0,0,0-1.32-.32,1.93,1.93,0,0,0-1.16.25.78.78,0,0,0-.32.65.69.69,0,0,0,.4.66,7.29,7.29,0,0,0,1.48.42,12.17,12.17,0,0,1,1.57.42,4,4,0,0,1,1.17.61,2.41,2.41,0,0,1,.73.89,2.71,2.71,0,0,1,.25,1.22,2.6,2.6,0,0,1-1.2,2.29,4.16,4.16,0,0,1-1.32.55,7.06,7.06,0,0,1-1.62.18,5.33,5.33,0,0,1-2.79-.65,4.62,4.62,0,0,1-1.63-1.63Z"/><path class="cls-1" d="M106.11,156.46a1.49,1.49,0,0,1-1.17-.44,1.45,1.45,0,0,1-.39-1,1.41,1.41,0,0,1,.39-1,1.78,1.78,0,0,1,2.34,0,1.41,1.41,0,0,1,.39,1,1.45,1.45,0,0,1-.39,1A1.49,1.49,0,0,1,106.11,156.46Zm-1.3,10.74v-9.64h2.6v9.64Z"/><path class="cls-1" d="M110,167.2v-9.64h2.38l.12.76a4.36,4.36,0,0,1,1.38-.74,4.73,4.73,0,0,1,1.56-.26,4.36,4.36,0,0,1,1.47.23,2.73,2.73,0,0,1,1.15.73,3.35,3.35,0,0,1,.75,1.3,6,6,0,0,1,.27,1.92v5.7h-2.62v-5.5A2.65,2.65,0,0,0,116,160a1.62,1.62,0,0,0-1.34-.6,2.21,2.21,0,0,0-1.12.3,4.55,4.55,0,0,0-.9.66v6.84Z"/><path class="cls-1" d="M123.65,163a2.47,2.47,0,0,0,.75,1.76,2.21,2.21,0,0,0,1.45.54,3.15,3.15,0,0,0,1.26-.25,3.2,3.2,0,0,0,1.16-1.09l1.94,1.18a4.74,4.74,0,0,1-1.9,1.77,5.9,5.9,0,0,1-2.54.51,5.47,5.47,0,0,1-1.82-.3,4.07,4.07,0,0,1-1.51-.93,4.56,4.56,0,0,1-1-1.57,6.07,6.07,0,0,1-.38-2.24,5.75,5.75,0,0,1,.37-2.16,4.47,4.47,0,0,1,1-1.58,4.25,4.25,0,0,1,1.49-1,4.78,4.78,0,0,1,1.81-.34,4.1,4.1,0,0,1,3.25,1.41,6.51,6.51,0,0,1,1.27,4.27Zm3.92-1.78a2,2,0,0,0-.65-1.44,1.84,1.84,0,0,0-1.21-.48,1.74,1.74,0,0,0-.67.13,1.88,1.88,0,0,0-.61.38,2.07,2.07,0,0,0-.47.61,2.27,2.27,0,0,0-.25.8Z"/><path class="cls-1" d="M133.35,164a3.13,3.13,0,0,0,1,1.07,2.65,2.65,0,0,0,1.53.43,2.69,2.69,0,0,0,1.25-.25.77.77,0,0,0,.45-.69.9.9,0,0,0-.48-.74,5.05,5.05,0,0,0-1.78-.56,9.65,9.65,0,0,1-1.39-.37,3.76,3.76,0,0,1-1.07-.59,2.57,2.57,0,0,1-.68-.86,2.79,2.79,0,0,1-.24-1.2,2.48,2.48,0,0,1,1.07-2.08,4.68,4.68,0,0,1,2.89-.8,5.33,5.33,0,0,1,2.6.53,4.18,4.18,0,0,1,1.48,1.29l-1.84,1.26a3,3,0,0,0-.92-.8,2.53,2.53,0,0,0-1.32-.32,1.93,1.93,0,0,0-1.16.25.78.78,0,0,0-.32.65.69.69,0,0,0,.4.66,7.29,7.29,0,0,0,1.48.42,12.17,12.17,0,0,1,1.57.42,4,4,0,0,1,1.17.61,2.41,2.41,0,0,1,.73.89,2.71,2.71,0,0,1,.25,1.22,2.6,2.6,0,0,1-1.2,2.29,4.16,4.16,0,0,1-1.32.55,7.06,7.06,0,0,1-1.62.18,5.33,5.33,0,0,1-2.79-.65,4.62,4.62,0,0,1-1.63-1.63Z"/><path class="cls-1" d="M143.05,164A3.13,3.13,0,0,0,144,165a2.65,2.65,0,0,0,1.53.43,2.69,2.69,0,0,0,1.25-.25.77.77,0,0,0,.45-.69.9.9,0,0,0-.48-.74,5.05,5.05,0,0,0-1.78-.56,9.65,9.65,0,0,1-1.39-.37,3.76,3.76,0,0,1-1.07-.59,2.57,2.57,0,0,1-.68-.86,2.79,2.79,0,0,1-.24-1.2,2.48,2.48,0,0,1,1.07-2.08,4.68,4.68,0,0,1,2.89-.8,5.33,5.33,0,0,1,2.6.53,4.18,4.18,0,0,1,1.48,1.29l-1.84,1.26a3,3,0,0,0-.92-.8,2.56,2.56,0,0,0-1.32-.32,1.93,1.93,0,0,0-1.16.25.78.78,0,0,0-.32.65.69.69,0,0,0,.4.66,7.29,7.29,0,0,0,1.48.42,12.62,12.62,0,0,1,1.57.42,4,4,0,0,1,1.17.61,2.41,2.41,0,0,1,.73.89,2.71,2.71,0,0,1,.25,1.22,2.75,2.75,0,0,1-.32,1.35,2.82,2.82,0,0,1-.88.94,4.26,4.26,0,0,1-1.32.55,7.06,7.06,0,0,1-1.62.18,5.33,5.33,0,0,1-2.79-.65,4.62,4.62,0,0,1-1.63-1.63Z"/></g></g></svg>