<svg xmlns="http://www.w3.org/2000/svg" viewBox="0 0 64 64" width="64" height="64"><title>car ventilation</title><g class="nc-icon-wrapper" stroke-linecap="square" stroke-linejoin="miter" stroke-width="2" fill="#111111" stroke="#111111"><path d="M54,45.048A69.75,69.75,0,0,1,62,47V10S50,6,32,6,2,10,2,10V47a75.575,75.575,0,0,1,10-2.318" fill="none" stroke="#111111" stroke-miterlimit="10"/> <path d="M20,58c8-8,0-16,0-16s-8-8,0-16" fill="none" stroke-miterlimit="10" data-color="color-2"/> <path d="M32,58c8-8,0-16,0-16s-8-8,0-16" fill="none" stroke-miterlimit="10" data-color="color-2"/> <path d="M44,58c8-8,0-16,0-16s-8-8,0-16" fill="none" stroke-miterlimit="10" data-color="color-2"/></g></svg>