<?xml version="1.0" encoding="iso-8859-1"?>
<!-- Generator: Adobe Illustrator 17.1.0, SVG Export Plug-In . SVG Version: 6.00 Build 0)  -->
<!DOCTYPE svg PUBLIC "-//W3C//DTD SVG 1.1//EN" "http://www.w3.org/Graphics/SVG/1.1/DTD/svg11.dtd">
<svg version="1.1" id="Capa_1" xmlns="http://www.w3.org/2000/svg" xmlns:xlink="http://www.w3.org/1999/xlink" x="0px" y="0px"
	 viewBox="0 0 220.835 220.835" style="enable-background:new 0 0 220.835 220.835;" xml:space="preserve">
<path d="M11.929,197.386c-3.055,0-6.109-1.163-8.435-3.489C1.24,191.644,0,188.648,0,185.462c0-3.187,1.24-6.183,3.494-8.436
	L151.613,28.908c7.276-7.278,19.119-7.279,26.397,0l1.543,1.542c0.003,0.002,0.005,0.005,0.008,0.008l40.395,40.395
	c1.172,1.171,1.172,3.071,0,4.242c-1.172,1.172-3.07,1.172-4.242,0L177.44,36.822l-7.009,7.009l38.273,38.273
	c1.172,1.171,1.172,3.071,0,4.242c-1.172,1.172-3.07,1.171-4.242,0l-38.274-38.273l-7.008,7.008l38.273,38.273
	c1.172,1.172,1.172,3.071,0,4.243c-1.172,1.172-3.07,1.172-4.242,0l-38.274-38.273l-7.008,7.008l38.272,38.274
	c1.172,1.171,1.172,3.071,0,4.243c-1.172,1.171-3.07,1.171-4.242,0l-38.273-38.273l-7.009,7.009l38.273,38.274
	c1.172,1.171,1.172,3.071,0,4.243c-1.172,1.171-3.07,1.171-4.242,0l-38.273-38.273l-7.009,7.009l38.273,38.274
	c1.172,1.171,1.172,3.071,0,4.242c-1.172,1.172-3.07,1.171-4.242,0l-38.274-38.274l-7.008,7.008l38.273,38.274
	c1.172,1.171,1.172,3.071,0,4.242c-1.172,1.172-3.07,1.172-4.242,0l-38.274-38.273l-7.009,7.009l38.273,38.274
	c1.172,1.171,1.172,3.071,0,4.242c-1.172,1.172-3.07,1.172-4.242,0l-38.273-38.273l-7.009,7.009l38.273,38.273
	c1.172,1.172,1.172,3.071,0,4.243c-1.172,1.172-3.07,1.172-4.242,0L87.43,126.832l-7.008,7.008l38.273,38.274
	c1.172,1.171,1.172,3.071,0,4.242c-1.172,1.172-3.07,1.172-4.242,0l-38.274-38.273l-55.814,55.814
	C18.039,196.223,14.984,197.386,11.929,197.386z M164.812,29.446c-3.243,0-6.486,1.234-8.956,3.704L7.736,181.269
	c-2.312,2.312-2.312,6.074,0,8.386c2.313,2.313,6.074,2.311,8.386,0l57.916-57.916c0.006-0.007,0.013-0.013,0.02-0.02
	c0.006-0.007,0.013-0.013,0.02-0.02l11.192-11.192c0.013-0.014,0.025-0.027,0.039-0.04c0.013-0.013,0.026-0.026,0.039-0.039
	l22.439-22.439c0.008-0.008,0.016-0.017,0.024-0.024c0.008-0.008,0.017-0.017,0.024-0.025l11.2-11.2
	c0.009-0.009,0.018-0.018,0.026-0.026s0.018-0.018,0.026-0.026l22.447-22.448c0.01-0.01,0.02-0.02,0.029-0.029
	c0.01-0.009,0.02-0.019,0.029-0.029l11.192-11.192c0.01-0.01,0.02-0.02,0.029-0.029s0.02-0.02,0.029-0.029l11.177-11.177
	c0.015-0.015,0.029-0.03,0.045-0.045c0.015-0.015,0.03-0.03,0.045-0.044l9.067-9.067C170.795,30.497,167.804,29.446,164.812,29.446z
	"/>
<g>
</g>
<g>
</g>
<g>
</g>
<g>
</g>
<g>
</g>
<g>
</g>
<g>
</g>
<g>
</g>
<g>
</g>
<g>
</g>
<g>
</g>
<g>
</g>
<g>
</g>
<g>
</g>
<g>
</g>
</svg>
