<svg xmlns="http://www.w3.org/2000/svg" viewBox="0 0 64 64" width="64" height="64"><title>cutlery 75</title><g class="nc-icon-wrapper" stroke-linecap="square" stroke-linejoin="miter" stroke-width="2" fill="#111111" stroke="#111111"><path data-cap="butt" data-color="color-2" fill="none" stroke-miterlimit="10" d="M43,27l-0.886,31.002 C42.052,60.191,43.81,62,46,62h0c2.19,0,3.948-1.809,3.886-3.998L49,27" stroke-linecap="butt"/> <path data-cap="butt" data-color="color-2" fill="none" stroke-miterlimit="10" d="M15.006,26.543l-0.892,31.458 C14.052,60.191,15.81,62,18,62h0c2.19,0,3.948-1.809,3.886-3.998l-0.891-31.458" stroke-linecap="butt"/> <path fill="none" stroke="#111111" stroke-miterlimit="10" d="M18,27L18,27 c-5.523,0-10-4.477-10-10v-5C8,6.477,12.477,2,18,2h0c5.523,0,10,4.477,10,10v5C28,22.523,23.523,27,18,27z"/> <path fill="none" stroke="#111111" stroke-miterlimit="10" d="M55,3v18 c0,3.314-2.686,6-6,6h-6c-3.314,0-6-2.686-6-6V3"/> <line fill="none" stroke="#111111" stroke-miterlimit="10" x1="43" y1="3" x2="43" y2="19"/> <line fill="none" stroke="#111111" stroke-miterlimit="10" x1="49" y1="3" x2="49" y2="19"/></g></svg>