<svg xmlns="http://www.w3.org/2000/svg" xmlns:xlink="http://www.w3.org/1999/xlink" viewBox="0 0 232.44 177.65"><defs><style>.cls-1{fill:#098566;}</style></defs><g id="レイヤー_2" data-name="レイヤー 2"><g id="レイヤー_1-2" data-name="レイヤー 1"><image width="1106" height="844" transform="scale(0.21 0.21)" xlink:href="%E3%82%B9%E3%82%AF%E3%83%AA%E3%83%BC%E3%83%B3%E3%82%B7%E3%83%A7%E3%83%83%E3%83%88%202020-08-25%2019.39.59.png"/><path class="cls-1" d="M34.31,165.1V154.18h-4v-2.42H41v2.42H37V165.1Z"/><path class="cls-1" d="M44.41,160.9a2.4,2.4,0,0,0,.75,1.76,2.19,2.19,0,0,0,1.45.54A2.61,2.61,0,0,0,49,161.86L51,163a4.74,4.74,0,0,1-1.9,1.77,5.9,5.9,0,0,1-2.54.51,5.47,5.47,0,0,1-1.82-.3,4,4,0,0,1-1.51-.93,4.42,4.42,0,0,1-1-1.57,5.87,5.87,0,0,1-.38-2.24,5.75,5.75,0,0,1,.37-2.16,4.34,4.34,0,0,1,1-1.58,4.16,4.16,0,0,1,1.49-1,4.74,4.74,0,0,1,1.81-.34,4.11,4.11,0,0,1,3.25,1.41A6.51,6.51,0,0,1,51,160.9Zm3.92-1.78a2,2,0,0,0-.65-1.44,1.86,1.86,0,0,0-1.21-.48,1.74,1.74,0,0,0-.67.13,1.78,1.78,0,0,0-.61.38,1.91,1.91,0,0,0-.47.61,2.27,2.27,0,0,0-.25.8Z"/><path class="cls-1" d="M52.89,165.1v-9.64h2.4l.1.72a3.76,3.76,0,0,1,1.15-.68,3.59,3.59,0,0,1,1.39-.28,5.09,5.09,0,0,1,1.42.21,3.45,3.45,0,0,1,1.32.73,7.77,7.77,0,0,1,1.52-.67,5.63,5.63,0,0,1,1.78-.27,5.48,5.48,0,0,1,1.9.28,3,3,0,0,1,1.23.8,3.07,3.07,0,0,1,.67,1.28,6.94,6.94,0,0,1,.2,1.74v5.78h-2.6v-5.66a2.84,2.84,0,0,0-.38-1.55,1.53,1.53,0,0,0-1.4-.59,2.08,2.08,0,0,0-.6.09,4.79,4.79,0,0,0-.57.21,3.72,3.72,0,0,0-.49.25,1.8,1.8,0,0,0-.34.23c0,.16,0,.34.08.54a6.5,6.5,0,0,1,0,.66v5.82h-2.6v-5.66a4.33,4.33,0,0,0-.08-.83,2.19,2.19,0,0,0-.26-.68,1.27,1.27,0,0,0-.49-.46,1.54,1.54,0,0,0-.77-.17,2.27,2.27,0,0,0-1.12.3,3.71,3.71,0,0,0-.88.64v6.86Z"/><path class="cls-1" d="M70.51,168.88V155.46h2.38l.12.72a3.91,3.91,0,0,1,1-.65,3,3,0,0,1,1.42-.31,3.86,3.86,0,0,1,1.83.42,4,4,0,0,1,1.31,1.11,5,5,0,0,1,.79,1.61,6.66,6.66,0,0,1,.27,1.9,5.92,5.92,0,0,1-.3,1.85,4.69,4.69,0,0,1-.93,1.62,4.9,4.9,0,0,1-1.6,1.15,5.57,5.57,0,0,1-2.29.44,3.5,3.5,0,0,1-1.34-.28v3.84Zm2.6-6a3,3,0,0,0,1.22.28,2.84,2.84,0,0,0,1.21-.24,2.5,2.5,0,0,0,.85-.65,2.94,2.94,0,0,0,.5-.92,3.71,3.71,0,0,0,.16-1,4.48,4.48,0,0,0-.14-1.1,3.48,3.48,0,0,0-.41-1,2.21,2.21,0,0,0-.68-.68,1.74,1.74,0,0,0-1-.26,1.88,1.88,0,0,0-1,.29,2.27,2.27,0,0,0-.72.63Z"/><path class="cls-1" d="M83.71,164.88a4.62,4.62,0,0,1-1.51-1.16,4.85,4.85,0,0,1-.91-1.63,5.92,5.92,0,0,1-.3-1.85,5.77,5.77,0,0,1,.3-1.84,4.67,4.67,0,0,1,.91-1.61,4.26,4.26,0,0,1,1.52-1.14,4.85,4.85,0,0,1,2.13-.43,4.91,4.91,0,0,1,2.13.43,4.44,4.44,0,0,1,1.52,1.14,4.83,4.83,0,0,1,.91,1.61,5.77,5.77,0,0,1,.3,1.84,5.92,5.92,0,0,1-.3,1.85,5,5,0,0,1-.91,1.63A4.76,4.76,0,0,1,88,164.88a5.4,5.4,0,0,1-4.27,0Zm.42-2.56a2.06,2.06,0,0,0,.71.63,2.29,2.29,0,0,0,2,0,2.41,2.41,0,0,0,.72-.63,3.07,3.07,0,0,0,.44-.93,4.45,4.45,0,0,0,0-2.29,2.86,2.86,0,0,0-.44-.93,2.25,2.25,0,0,0-.72-.62,2,2,0,0,0-1-.23,2,2,0,0,0-1,.23,2.05,2.05,0,0,0-.72.62,2.67,2.67,0,0,0-.44.93,4.45,4.45,0,0,0,0,2.29A3.06,3.06,0,0,0,84.13,162.32Z"/><path class="cls-1" d="M92.71,165.1v-9.64h2.38l.12.84a3.12,3.12,0,0,1,1.09-.81,2.81,2.81,0,0,1,1.15-.23,3.17,3.17,0,0,1,.72.08,5.13,5.13,0,0,1,.78.22l-.46,2.26a6,6,0,0,0-.75-.25,2.84,2.84,0,0,0-.69-.09,1.9,1.9,0,0,0-1,.26,2.24,2.24,0,0,0-.71.6v6.76Z"/><path class="cls-1" d="M105.47,165.1l-.12-.72a3,3,0,0,1-1.07.69,4.13,4.13,0,0,1-1.43.25,3.77,3.77,0,0,1-1.25-.21,3.19,3.19,0,0,1-1.07-.6,2.81,2.81,0,0,1-.74-1,2.84,2.84,0,0,1-.28-1.29,2.59,2.59,0,0,1,.3-1.27,2.76,2.76,0,0,1,.8-.93,4.08,4.08,0,0,1,1.15-.62,7.44,7.44,0,0,1,1.37-.36,8.36,8.36,0,0,1,1.1-.15l1-.09v-.32a1.22,1.22,0,0,0-.4-.94,1.37,1.37,0,0,0-.94-.36,2.69,2.69,0,0,0-.86.18,2.48,2.48,0,0,0-1,.68l-1.78-1.24a3.47,3.47,0,0,1,.87-.8,4.25,4.25,0,0,1,1-.5,4.66,4.66,0,0,1,1-.25,6.16,6.16,0,0,1,.92-.07,5.36,5.36,0,0,1,1.54.21,3.24,3.24,0,0,1,1.21.66,3,3,0,0,1,.79,1.14,4.55,4.55,0,0,1,.28,1.67v6.2Zm-.22-4.5c-.27,0-.55,0-.85.07a6.9,6.9,0,0,0-.85.13,1.94,1.94,0,0,0-1.17.55,1.28,1.28,0,0,0-.33.85,1,1,0,0,0,.36.77,1.67,1.67,0,0,0,1.06.29,2.55,2.55,0,0,0,1-.2,3.26,3.26,0,0,0,.81-.5Z"/><path class="cls-1" d="M110.41,165.1v-9.64h2.38l.12.84a3.12,3.12,0,0,1,1.09-.81,2.81,2.81,0,0,1,1.15-.23,3.17,3.17,0,0,1,.72.08,5.13,5.13,0,0,1,.78.22l-.46,2.26a6,6,0,0,0-.75-.25,2.84,2.84,0,0,0-.69-.09,1.9,1.9,0,0,0-1,.26,2.24,2.24,0,0,0-.71.6v6.76Z"/><path class="cls-1" d="M117.49,166.72a3.71,3.71,0,0,0,.75.26,3.19,3.19,0,0,0,.63.08,1,1,0,0,0,.48-.14,1.33,1.33,0,0,0,.44-.56l.74-1.66-4-9.24h2.78l2.52,6.58,2.4-6.58h2.64l-5,11.92a3.43,3.43,0,0,1-.52.84,2.79,2.79,0,0,1-.66.54,3,3,0,0,1-.77.28,4.63,4.63,0,0,1-.81.08A6.23,6.23,0,0,1,118,169a7.67,7.67,0,0,1-1.29-.41Z"/><path class="cls-1" d="M132.41,165.1V151.76h2.7V157h5.3v-5.28h2.7V165.1h-2.7v-5.64h-5.3v5.64Z"/><path class="cls-1" d="M148.07,164.88a4.62,4.62,0,0,1-1.51-1.16,4.85,4.85,0,0,1-.91-1.63,5.92,5.92,0,0,1-.3-1.85,5.77,5.77,0,0,1,.3-1.84,4.67,4.67,0,0,1,.91-1.61,4.26,4.26,0,0,1,1.52-1.14,4.85,4.85,0,0,1,2.13-.43,4.91,4.91,0,0,1,2.13.43,4.44,4.44,0,0,1,1.52,1.14,4.83,4.83,0,0,1,.91,1.61,5.77,5.77,0,0,1,.3,1.84,5.92,5.92,0,0,1-.3,1.85,5,5,0,0,1-.91,1.63,4.76,4.76,0,0,1-1.52,1.16,5.4,5.4,0,0,1-4.27,0Zm.42-2.56a2.06,2.06,0,0,0,.71.63,2.29,2.29,0,0,0,2,0,2.41,2.41,0,0,0,.72-.63,3.07,3.07,0,0,0,.44-.93,4.45,4.45,0,0,0,0-2.29,2.86,2.86,0,0,0-.44-.93,2.25,2.25,0,0,0-.72-.62,2,2,0,0,0-1-.23,2,2,0,0,0-1,.23,2.05,2.05,0,0,0-.72.62,2.67,2.67,0,0,0-.44.93,4.45,4.45,0,0,0,0,2.29A3.06,3.06,0,0,0,148.49,162.32Z"/><path class="cls-1" d="M157.07,165.1v-9.64h2.4l.1.72a3.76,3.76,0,0,1,1.15-.68,3.59,3.59,0,0,1,1.39-.28,5.09,5.09,0,0,1,1.42.21,3.45,3.45,0,0,1,1.32.73,7.77,7.77,0,0,1,1.52-.67,5.63,5.63,0,0,1,1.78-.27,5.48,5.48,0,0,1,1.9.28,3,3,0,0,1,1.23.8,3.07,3.07,0,0,1,.67,1.28,6.94,6.94,0,0,1,.2,1.74v5.78h-2.6v-5.66a2.84,2.84,0,0,0-.38-1.55,1.53,1.53,0,0,0-1.4-.59,2.08,2.08,0,0,0-.6.09,4.79,4.79,0,0,0-.57.21,3.72,3.72,0,0,0-.49.25,1.8,1.8,0,0,0-.34.23c0,.16,0,.34.08.54a6.5,6.5,0,0,1,0,.66v5.82h-2.6v-5.66a4.33,4.33,0,0,0-.08-.83,2.19,2.19,0,0,0-.26-.68,1.27,1.27,0,0,0-.49-.46,1.54,1.54,0,0,0-.77-.17,2.27,2.27,0,0,0-1.12.3,3.71,3.71,0,0,0-.88.64v6.86Z"/><path class="cls-1" d="M176.71,160.9a2.4,2.4,0,0,0,.75,1.76,2.19,2.19,0,0,0,1.45.54,2.61,2.61,0,0,0,2.42-1.34l1.94,1.18a4.74,4.74,0,0,1-1.9,1.77,5.9,5.9,0,0,1-2.54.51A5.47,5.47,0,0,1,177,165a4,4,0,0,1-1.51-.93,4.42,4.42,0,0,1-1-1.57,5.87,5.87,0,0,1-.38-2.24,5.75,5.75,0,0,1,.37-2.16,4.34,4.34,0,0,1,1-1.58,4.16,4.16,0,0,1,1.49-1,4.74,4.74,0,0,1,1.81-.34,4.11,4.11,0,0,1,3.25,1.41,6.51,6.51,0,0,1,1.27,4.27Zm3.92-1.78a2,2,0,0,0-.65-1.44,1.86,1.86,0,0,0-1.21-.48,1.74,1.74,0,0,0-.67.13,1.78,1.78,0,0,0-.61.38,1.91,1.91,0,0,0-.47.61,2.27,2.27,0,0,0-.25.8Z"/></g></g></svg>