<svg xmlns="http://www.w3.org/2000/svg" xmlns:xlink="http://www.w3.org/1999/xlink" viewBox="0 0 232.44 175.75"><defs><style>.cls-1{fill:#098566;}</style></defs><g id="レイヤー_2" data-name="レイヤー 2"><g id="レイヤー_1-2" data-name="レイヤー 1"><image width="1196" height="872" transform="scale(0.19 0.2)" xlink:href="%E3%82%B9%E3%82%AF%E3%83%AA%E3%83%BC%E3%83%B3%E3%82%B7%E3%83%A7%E3%83%83%E3%83%88%202020-08-25%2019.41.26.png"/><path class="cls-1" d="M80,168.42V155.08h2.7V166H89.4v2.42Z"/><path class="cls-1" d="M92.82,164.22a2.38,2.38,0,0,0,.75,1.76,2.19,2.19,0,0,0,1.45.54,3,3,0,0,0,1.26-.25,3.11,3.11,0,0,0,1.16-1.09l1.94,1.18a4.74,4.74,0,0,1-1.9,1.77,5.9,5.9,0,0,1-2.54.51,5.47,5.47,0,0,1-1.82-.3,4,4,0,0,1-1.51-.93,4.34,4.34,0,0,1-1-1.57,6.64,6.64,0,0,1,0-4.4,4.51,4.51,0,0,1,1-1.58,4.44,4.44,0,0,1,1.49-1,4.94,4.94,0,0,1,1.81-.34A4.11,4.11,0,0,1,98.13,160a6.53,6.53,0,0,1,1.27,4.27Zm3.92-1.78a2,2,0,0,0-.65-1.44,1.86,1.86,0,0,0-1.21-.48,2,2,0,0,0-.67.13,2.15,2.15,0,0,0-.61.38,2,2,0,0,0-.47.61,2.34,2.34,0,0,0-.25.8Z"/><path class="cls-1" d="M102.6,157.68a1.46,1.46,0,0,1-1.17-.44,1.4,1.4,0,0,1,0-1.94,1.78,1.78,0,0,1,2.34,0,1.4,1.4,0,0,1,0,1.94A1.46,1.46,0,0,1,102.6,157.68Zm-1.3,10.74v-9.64h2.6v9.64Z"/><path class="cls-1" d="M107.72,165.18a2.87,2.87,0,0,0,1,1.07,3.07,3.07,0,0,0,2.78.18.75.75,0,0,0,.45-.69.91.91,0,0,0-.48-.74,5.35,5.35,0,0,0-1.78-.56,7.6,7.6,0,0,1-1.39-.37,3.54,3.54,0,0,1-1.07-.59,2.36,2.36,0,0,1-.68-.86,2.73,2.73,0,0,1-.24-1.2,2.48,2.48,0,0,1,1.07-2.08,4.72,4.72,0,0,1,2.89-.8,5.45,5.45,0,0,1,2.6.53,4.39,4.39,0,0,1,1.48,1.29l-1.84,1.26a3.11,3.11,0,0,0-.92-.8,2.69,2.69,0,0,0-1.32-.32,2,2,0,0,0-1.16.25.78.78,0,0,0-.32.65.67.67,0,0,0,.4.66,6,6,0,0,0,1.48.42,12.62,12.62,0,0,1,1.57.42,4.29,4.29,0,0,1,1.17.61,2.58,2.58,0,0,1,.73.89,2.92,2.92,0,0,1,.25,1.22,2.6,2.6,0,0,1-1.2,2.29,4.13,4.13,0,0,1-1.32.55,7.06,7.06,0,0,1-1.62.18,5.24,5.24,0,0,1-2.79-.65,4.39,4.39,0,0,1-1.63-1.63Z"/><path class="cls-1" d="M122.78,168.42l-.1-.76a3.87,3.87,0,0,1-1.44.76,5.35,5.35,0,0,1-1.46.2,3.47,3.47,0,0,1-2.7-1,4.38,4.38,0,0,1-.94-3.08v-5.74h2.62v5.48a3,3,0,0,0,.38,1.62,1.38,1.38,0,0,0,1.3.62,2.55,2.55,0,0,0,1.28-.29,5.83,5.83,0,0,0,.84-.55v-6.88h2.62v9.64Z"/><path class="cls-1" d="M127.78,168.42v-9.64h2.38l.12.84a3.39,3.39,0,0,1,1.09-.81,3,3,0,0,1,1.15-.23,3.86,3.86,0,0,1,.72.08c.25.06.51.13.78.22l-.46,2.26c-.27-.1-.52-.19-.75-.25a2.84,2.84,0,0,0-.69-.09,2,2,0,0,0-1,.26,2.53,2.53,0,0,0-.71.6v6.76Z"/><path class="cls-1" d="M137.22,164.22A2.38,2.38,0,0,0,138,166a2.19,2.19,0,0,0,1.45.54,3,3,0,0,0,1.26-.25,3.11,3.11,0,0,0,1.16-1.09l1.94,1.18a4.74,4.74,0,0,1-1.9,1.77,5.9,5.9,0,0,1-2.54.51,5.47,5.47,0,0,1-1.82-.3,4,4,0,0,1-1.51-.93,4.34,4.34,0,0,1-1-1.57,6.64,6.64,0,0,1,0-4.4,4.51,4.51,0,0,1,1-1.58,4.44,4.44,0,0,1,1.49-1,4.94,4.94,0,0,1,1.81-.34,4.11,4.11,0,0,1,3.25,1.41,6.53,6.53,0,0,1,1.27,4.27Zm3.92-1.78a2,2,0,0,0-.65-1.44,1.86,1.86,0,0,0-1.21-.48,2,2,0,0,0-.67.13,2.15,2.15,0,0,0-.61.38,2,2,0,0,0-.47.61,2.34,2.34,0,0,0-.25.8Z"/></g></g></svg>