<svg xmlns="http://www.w3.org/2000/svg" viewBox="0 0 64 64" width="64" height="64"><title>pin heart</title><g class="nc-icon-wrapper" stroke-linecap="square" stroke-linejoin="miter" stroke-width="2" fill="#111111" stroke="#111111"><path d="M35,53.206C31.115,57.885,28,61,28,61S6,39,6,24.1C6,10.113,17.369,2,28,2s22,8.113,22,22.1A21.992,21.992,0,0,1,48.726,31" fill="none" stroke="#111111" stroke-miterlimit="10"/> <circle cx="28" cy="24" r="8" fill="none" stroke="#111111" stroke-miterlimit="10"/> <path d="M58.083,37.984A6.412,6.412,0,0,0,48,39.03a6.413,6.413,0,0,0-10.083-1.046,6.943,6.943,0,0,0,0,9.58L48,58,58.083,47.564A6.943,6.943,0,0,0,58.083,37.984Z" fill="none" stroke-miterlimit="10" data-color="color-2"/></g></svg>