<?xml version="1.0" encoding="iso-8859-1"?>
<!-- Generator: Adobe Illustrator 19.0.0, SVG Export Plug-In . SVG Version: 6.00 Build 0)  -->
<svg version="1.1" id="Layer_1" xmlns="http://www.w3.org/2000/svg" xmlns:xlink="http://www.w3.org/1999/xlink" x="0px" y="0px"
	 viewBox="0 0 511.999 511.999" style="enable-background:new 0 0 511.999 511.999;" xml:space="preserve">
<g>
	<g>
		<circle cx="256.047" cy="121.621" r="8.828"/>
	</g>
</g>
<g>
	<g>
		<path d="M391.156,4.092C389.535,1.544,386.725,0,383.705,0H128.348c-3.106,0-5.983,1.633-7.578,4.297l-1.071,1.791
			c-15.899,26.579-15.899,58.315,0,84.892l1.072,1.794c1.594,2.666,4.471,4.297,7.578,4.297h35.728v8.969
			c0,13.457,9.417,24.404,20.992,24.404c1.146,0,3.338,2.628,3.338,6.748v11.213c0,8.497,6.913,15.409,15.409,15.409h7.541
			l8.915,46.687c0.174,0.916,0.494,1.798,0.945,2.614l1.164,2.107c2.386,4.315,2.421,9.486,0.091,13.833l-1.31,2.447
			c-0.686,1.282-1.046,2.714-1.046,4.168v240.398c0,19.811,16.117,35.93,35.928,35.93s35.929-16.118,35.929-35.93V234.09
			c0-1.548-0.407-3.068-1.181-4.41l-0.585-1.015c-2.714-4.708-2.575-10.473,0.364-15.045c0.612-0.95,1.035-2.008,1.246-3.117
			l8.914-46.687h7.54c8.497,0,15.409-6.913,15.409-15.409v-11.213c0-4.12,2.192-6.748,3.338-6.748
			c11.576,0,20.993-10.947,20.993-24.404v-8.969h35.693c3.019,0,5.83-1.544,7.45-4.092C408.58,65.567,408.58,31.506,391.156,4.092z
			 M274.77,205.65c-5.39,9.522-5.571,21.049-0.452,30.757v239.664c0,10.076-8.198,18.274-18.274,18.274
			c-10.076,0-18.273-8.198-18.273-18.274V237.888l0.264-0.492c5.173-9.651,5.096-21.134-0.201-30.714l-0.483-0.873l-8.019-41.993
			h53.426L274.77,205.65z M330.356,106.041c0,4.121-2.192,6.749-3.338,6.749c-11.576,0-20.993,10.947-20.993,24.403v8.969h-12.596
			h-74.77h-12.596v-8.969c0-13.457-9.417-24.403-20.993-24.403c-1.146,0-3.337-2.628-3.337-6.749v-8.969h148.624V106.041z
			 M378.659,79.418h-39.476H172.905h-39.48c-3.821-7.039-6.242-14.489-7.308-22.054h259.79
			C384.85,64.951,382.449,72.413,378.659,79.418z M126.115,39.709c1.068-7.565,3.489-15.015,7.309-22.054h245.235
			c3.79,7.004,6.191,14.467,7.247,22.054H126.115z"/>
	</g>
</g>
<g>
</g>
<g>
</g>
<g>
</g>
<g>
</g>
<g>
</g>
<g>
</g>
<g>
</g>
<g>
</g>
<g>
</g>
<g>
</g>
<g>
</g>
<g>
</g>
<g>
</g>
<g>
</g>
<g>
</g>
</svg>
