<?xml version="1.0" encoding="iso-8859-1"?>
<!-- Generator: Adobe Illustrator 19.0.0, SVG Export Plug-In . SVG Version: 6.00 Build 0)  -->
<svg version="1.1" id="Layer_1" xmlns="http://www.w3.org/2000/svg" xmlns:xlink="http://www.w3.org/1999/xlink" x="0px" y="0px"
	 viewBox="0 0 512 512" style="enable-background:new 0 0 512 512;" xml:space="preserve">
<g>
	<g>
		<path d="M131.265,31.795h-7.337c-5.633,0-10.199,4.567-10.199,10.199s4.566,10.199,10.199,10.199h7.337
			c5.633,0,10.199-4.567,10.199-10.199S136.898,31.795,131.265,31.795z"/>
	</g>
</g>
<g>
	<g>
		<path d="M84.795,31.795h-7.337c-5.633,0-10.199,4.567-10.199,10.199s4.566,10.199,10.199,10.199h7.337
			c5.633,0,10.199-4.567,10.199-10.199S90.428,31.795,84.795,31.795z"/>
	</g>
</g>
<g>
	<g>
		<path d="M177.735,31.795h-7.337c-5.633,0-10.199,4.567-10.199,10.199s4.566,10.199,10.199,10.199h7.337
			c5.633,0,10.199-4.567,10.199-10.199S183.368,31.795,177.735,31.795z"/>
	</g>
</g>
<g>
	<g>
		<path d="M198.941,172.914v-48.329c13.348-3.45,23.235-15.596,23.235-30.005c0-9.813-4.59-18.569-11.73-24.25
			c7.266-7.736,11.73-18.132,11.73-29.556C222.175,18.29,203.885,0,181.404,0H73.789C51.308,0,33.018,18.29,33.018,40.772
			c0,11.425,4.464,21.821,11.73,29.556c-7.139,5.682-11.73,14.437-11.73,24.25c0,14.41,9.888,26.555,23.235,30.005v48.329
			c-21.422,3.192-37.909,21.711-37.909,44.008v284.881c0,5.632,4.566,10.199,10.199,10.199h198.108
			c5.633,0,10.199-4.567,10.199-10.199V216.922C236.85,194.625,220.362,176.106,198.941,172.914z M73.789,20.398h107.615
			c11.233,0,20.373,9.14,20.373,20.374c0,12.583-10.237,22.819-22.819,22.819H76.235c-12.582,0-22.819-10.236-22.819-22.819
			C53.416,29.538,62.556,20.398,73.789,20.398z M53.416,94.579c0-5.839,4.751-10.59,10.59-10.59h127.181
			c5.84,0,10.59,4.751,10.59,10.59s-4.751,10.59-10.59,10.59H64.006C58.166,105.169,53.416,100.418,53.416,94.579z M38.741,216.922
			c0.001-13.287,10.81-24.096,24.097-24.096h3.615c5.633,0,10.199-4.567,10.199-10.199v-57.059h101.89v57.059
			c0,5.632,4.566,10.199,10.199,10.199h3.615c13.286,0,24.096,10.81,24.096,24.096v64.973l-177.71,24.233V216.922z M216.452,491.602
			H38.742V326.714l177.71-24.233V491.602z"/>
	</g>
</g>
<g>
	<g>
		<path d="M388.072,31.795h-7.337c-5.633,0-10.199,4.567-10.199,10.199s4.566,10.199,10.199,10.199h7.337
			c5.633,0,10.199-4.567,10.199-10.199S393.705,31.795,388.072,31.795z"/>
	</g>
</g>
<g>
	<g>
		<path d="M341.602,31.795h-7.337c-5.633,0-10.199,4.567-10.199,10.199s4.566,10.199,10.199,10.199h7.337
			c5.633,0,10.199-4.567,10.199-10.199S347.235,31.795,341.602,31.795z"/>
	</g>
</g>
<g>
	<g>
		<path d="M434.542,31.795h-7.337c-5.633,0-10.199,4.567-10.199,10.199s4.566,10.199,10.199,10.199h7.337
			c5.633,0,10.199-4.567,10.199-10.199S440.175,31.795,434.542,31.795z"/>
	</g>
</g>
<g>
	<g>
		<path d="M455.747,172.914v-48.329c13.348-3.45,23.235-15.596,23.235-30.005c0-9.813-4.59-18.569-11.73-24.25
			c7.266-7.736,11.73-18.132,11.73-29.556C478.982,18.29,460.692,0,438.211,0H330.596c-22.481,0-40.771,18.29-40.771,40.772
			c0,11.425,4.464,21.821,11.73,29.556c-7.139,5.682-11.73,14.437-11.73,24.25c0,14.41,9.888,26.555,23.235,30.005v48.329
			c-21.422,3.192-37.909,21.711-37.909,44.008v284.881c0,5.632,4.566,10.199,10.199,10.199h198.108
			c5.633,0,10.199-4.567,10.199-10.199V216.922C493.657,194.625,477.169,176.106,455.747,172.914z M330.596,20.398h107.615
			c11.233,0,20.373,9.14,20.373,20.374c0,12.583-10.237,22.819-22.819,22.819H333.042c-12.582,0-22.819-10.236-22.819-22.819
			C310.223,29.538,319.363,20.398,330.596,20.398z M310.223,94.579c0-5.839,4.751-10.59,10.59-10.59h127.181
			c5.84,0,10.59,4.751,10.59,10.59s-4.751,10.59-10.59,10.59H320.813C314.973,105.169,310.223,100.418,310.223,94.579z
			 M295.547,216.922c0.001-13.287,10.81-24.096,24.097-24.096h3.615c5.633,0,10.199-4.567,10.199-10.199v-57.059h101.89v57.059
			c0,5.632,4.566,10.199,10.199,10.199h3.615c13.287,0,24.096,10.81,24.096,24.096v64.973l-177.71,24.233V216.922z M473.258,491.602
			h-177.71V326.714l177.71-24.233V491.602z"/>
	</g>
</g>
<g>
	<g>
		<path d="M188.741,322.843c-5.633,0-10.199,4.567-10.199,10.199v8.556c0,5.632,4.566,10.199,10.199,10.199
			c5.633,0,10.199-4.567,10.199-10.199v-8.556C198.941,327.41,194.374,322.843,188.741,322.843z"/>
	</g>
</g>
<g>
	<g>
		<path d="M188.741,369.313c-5.633,0-10.199,4.567-10.199,10.199v83.156c0,5.632,4.566,10.199,10.199,10.199
			c5.633,0,10.199-4.567,10.199-10.199v-83.156C198.941,373.879,194.374,369.313,188.741,369.313z"/>
	</g>
</g>
<g>
</g>
<g>
</g>
<g>
</g>
<g>
</g>
<g>
</g>
<g>
</g>
<g>
</g>
<g>
</g>
<g>
</g>
<g>
</g>
<g>
</g>
<g>
</g>
<g>
</g>
<g>
</g>
<g>
</g>
</svg>
