<?xml version="1.0" encoding="iso-8859-1"?>
<!-- Generator: Adobe Illustrator 19.0.0, SVG Export Plug-In . SVG Version: 6.00 Build 0)  -->
<svg version="1.1" id="Capa_1" xmlns="http://www.w3.org/2000/svg" xmlns:xlink="http://www.w3.org/1999/xlink" x="0px" y="0px"
	 viewBox="0 0 470 470" style="enable-background:new 0 0 470 470;" xml:space="preserve">
<g>
	<path d="M462.5,274.94h-2.935c-3.589-32.293-29.749-62.722-61.404-69.876l-130.67-29.535
		c-0.186-17.762-14.686-32.155-32.491-32.155c-16.938,0-30.89,13.023-32.37,29.582c-10.542,4.806-17.797,14.934-18.839,26.642
		c-10.542,4.805-17.797,14.934-18.839,26.642c-10.541,4.806-17.796,14.934-18.838,26.641c-9.138,4.166-15.794,12.335-18.086,22.061
		H7.5c-4.143,0-7.5,3.357-7.5,7.5v36.686c0,4.143,3.357,7.5,7.5,7.5h455c4.143,0,7.5-3.357,7.5-7.5V282.44
		C470,278.298,466.643,274.94,462.5,274.94z M155.409,265.459c3.599-0.894,6.004-4.283,5.659-7.976
		c-0.056-0.597-0.083-1.147-0.083-1.685c0-8.059,5.453-15.041,13.263-16.981c3.602-0.895,6.008-4.29,5.658-7.985
		c-0.055-0.58-0.083-1.145-0.083-1.675c0-8.059,5.454-15.041,13.263-16.981c3.602-0.895,6.008-4.29,5.658-7.985
		c-0.055-0.573-0.082-1.138-0.082-1.675c0-8.058,5.454-15.041,13.263-16.981c3.603-0.895,6.008-4.29,5.658-7.985
		c-0.055-0.58-0.083-1.145-0.083-1.675c0-9.649,7.851-17.5,17.5-17.5s17.5,7.851,17.5,17.5c0,8.059-5.454,15.041-13.263,16.981
		c-3.602,0.895-6.008,4.29-5.658,7.985c0.055,0.58,0.083,1.145,0.083,1.675c0,8.059-5.454,15.041-13.264,16.981
		c-3.602,0.895-6.008,4.29-5.658,7.985c0.055,0.58,0.083,1.145,0.083,1.675c0,8.059-5.453,15.041-13.263,16.981
		c-3.602,0.895-6.008,4.29-5.658,7.985c0.055,0.58,0.083,1.145,0.083,1.675c0,8.059-5.454,15.041-13.263,16.981
		c-1.451,0.36-2.703,1.132-3.664,2.16h-35.221C146.026,270.317,150.186,266.757,155.409,265.459z M455,311.626H15V289.94h303.573
		c4.143,0,7.5-3.357,7.5-7.5s-3.357-7.5-7.5-7.5H204.77c3.393-4.661,5.553-10.235,6.086-16.224
		c10.541-4.806,17.796-14.935,18.838-26.642c10.541-4.806,17.797-14.935,18.839-26.642c6.911-3.151,12.395-8.6,15.656-15.272
		l130.665,29.534c24.744,5.593,45.986,29.906,49.598,55.245h-95.879c-4.143,0-7.5,3.357-7.5,7.5s3.357,7.5,7.5,7.5H455V311.626z"/>
</g>
<g>
</g>
<g>
</g>
<g>
</g>
<g>
</g>
<g>
</g>
<g>
</g>
<g>
</g>
<g>
</g>
<g>
</g>
<g>
</g>
<g>
</g>
<g>
</g>
<g>
</g>
<g>
</g>
<g>
</g>
</svg>
