<svg xmlns="http://www.w3.org/2000/svg" viewBox="0 0 64 64" width="64" height="64"><title>tooth</title><g class="nc-icon-wrapper" stroke-linecap="square" stroke-linejoin="miter" stroke-width="2" fill="#111111" stroke="#111111"><path fill="none" stroke="#111111" stroke-miterlimit="10" d="M58,13.8 C58,9.6,54.6,6,50.2,6C48,6,43.4,7.3,39.4,8.6C37,9.4,34.5,9.8,32,9.8c-2.5,0-5-0.4-7.4-1.2C20.6,7.3,16,6,13.8,6 C9.4,6,6,9.6,6,13.8c0,4.2,2.6,13,2.6,13L6,53c0,2.7,2.2,5,5,5c1.8,0,3.2-1.2,4.3-2.5l10-11.9c1.8-2.2,4.1-3.9,6.7-3.9 s4.8,1.6,6.7,3.9l10,11.9c1,1.3,2.5,2.5,4.3,2.5c2.7,0,5-2.2,5-5l-2.6-26.2C55.4,26.8,58,18,58,13.8z"/> <path data-color="color-2" fill="none" stroke-miterlimit="10" d="M24.2,19.3 c2.6,0.6,5.2,0.9,7.8,0.9c2.6,0,5.3-0.3,7.8-0.9"/></g></svg>