<svg xmlns="http://www.w3.org/2000/svg" viewBox="0 0 64 64" width="64" height="64"><title>wash hands</title><g class="nc-icon-wrapper" stroke-linecap="square" stroke-linejoin="miter" stroke-width="2" fill="#111111" stroke="#111111"><path d="M49,41l6.331-3.8a4.415,4.415,0,0,1,5.983,1.4h0A4.413,4.413,0,0,1,60.3,44.475L49,53.229a6,6,0,0,1-2.218,1.076L26.527,59.368a6,6,0,0,1-4.714-.783L7,49H2V33l9.958-1.66a6,6,0,0,1,3.859.651L25,37l14.911.785A4.315,4.315,0,0,1,44,42.094h0a4.316,4.316,0,0,1-3.886,4.3L24,48" fill="none" stroke="#111111" stroke-miterlimit="10"/><path d="M23,26c0-2.761,5-10,5-10s5,7.239,5,10a5,5,0,0,1-10,0Z" fill="none" stroke-miterlimit="10" data-color="color-2"/><line x1="26" y1="6" x2="59" y2="6" fill="none" stroke-miterlimit="10" data-color="color-2"/><path d="M39,32V18a5,5,0,0,1,5-5H54a5,5,0,0,1,5,5V31" fill="none" stroke-miterlimit="10" data-color="color-2"/><line x1="49" y1="13" x2="49" y2="6" fill="none" stroke-miterlimit="10" data-cap="butt" data-color="color-2" stroke-linecap="butt"/></g></svg>