<svg xmlns="http://www.w3.org/2000/svg" viewBox="0 0 64 64" width="64" height="64"><title>whisk</title><g class="nc-icon-wrapper" stroke-linecap="square" stroke-linejoin="miter" stroke-width="2" fill="#111111" stroke="#111111"><path data-color="color-2" fill="none" stroke-miterlimit="10" d="M30,42L13.657,58.343 c-2.209,2.209-5.791,2.209-8,0l0,0c-2.209-2.209-2.209-5.791,0-8L22,34"/> <path data-cap="butt" fill="none" stroke="#111111" stroke-miterlimit="10" d="M55.607,8.393 c-5.858-5.858-15.355-5.858-21.213,0S22,34,22,34l8,8c0,0,20.731-7.518,25.607-12.393C61.464,23.749,61.464,14.251,55.607,8.393z" stroke-linecap="butt"/> <path data-cap="butt" fill="none" stroke="#111111" stroke-miterlimit="10" d="M27.508,39.509 c0,0,16.616-11.633,21.492-16.508c5.858-5.858,8.816-12.397,6.607-14.607C53.397,6.184,46.858,9.142,41,15 S24.492,36.492,24.492,36.492" stroke-linecap="butt"/></g></svg>