<svg xmlns="http://www.w3.org/2000/svg" viewBox="0 0 48 48" width="48" height="48"><title>wifi protected</title><g class="nc-icon-wrapper" stroke-linecap="square" stroke-linejoin="miter" stroke-width="2" fill="#111111" stroke="#111111"><path fill="none" stroke="#111111" stroke-miterlimit="10" d="M24,34 c-2.209,0-4-1.791-4-4s1.791-4,4-4c0.728,0,1.411,0.195,2,0.535"/> <path fill="none" stroke="#111111" stroke-miterlimit="10" d="M35.314,18.686 C32.418,15.791,28.418,14,24,14c-4.418,0-8.418,1.791-11.314,4.686"/> <path fill="none" stroke="#111111" stroke-miterlimit="10" d="M43.799,10.201 C38.732,5.134,31.732,2,24,2C16.268,2,9.268,5.134,4.201,10.201"/> <rect data-color="color-2" x="30" y="36" fill="none" stroke-miterlimit="10" width="16" height="10"/> <path data-color="color-2" fill="none" stroke-miterlimit="10" d="M34,36v-6 c0-2.2,1.8-4,4-4l0,0c2.2,0,4,1.8,4,4v6"/></g></svg>