<svg xmlns="http://www.w3.org/2000/svg" xmlns:xlink="http://www.w3.org/1999/xlink" viewBox="0 0 232.44 175.75"><defs><style>.cls-1{fill:#098566;}</style></defs><g id="レイヤー_2" data-name="レイヤー 2"><g id="レイヤー_1-2" data-name="レイヤー 1"><image width="1132" height="918" transform="scale(0.21 0.19)" xlink:href="%E3%82%B9%E3%82%AF%E3%83%AA%E3%83%BC%E3%83%B3%E3%82%B7%E3%83%A7%E3%83%83%E3%83%88%202020-08-25%2019.42.12.png"/><path class="cls-1" d="M73,167.42l-3-13.34h2.7L74.3,162l2.61-7.92h1.66L81.16,162l1.68-7.92h2.69l-3.07,13.34h-1.7l-3-8.94-3,8.94Z"/><path class="cls-1" d="M89,167.2A4.39,4.39,0,0,1,87.44,166a4.75,4.75,0,0,1-.91-1.63,5.6,5.6,0,0,1-.3-1.85,5.5,5.5,0,0,1,.3-1.84,4.67,4.67,0,0,1,.91-1.61A4.56,4.56,0,0,1,89,158a4.91,4.91,0,0,1,2.13-.43,4.85,4.85,0,0,1,2.13.43,4.65,4.65,0,0,1,1.53,1.14,4.83,4.83,0,0,1,.91,1.61,6.06,6.06,0,0,1,.3,1.84,6.17,6.17,0,0,1-.3,1.85,4.93,4.93,0,0,1-.91,1.63,4.56,4.56,0,0,1-1.53,1.16,4.85,4.85,0,0,1-2.13.44A4.91,4.91,0,0,1,89,167.2Zm.41-2.56a2,2,0,0,0,.71.63,2.18,2.18,0,0,0,1,.23,2.07,2.07,0,0,0,1-.23,2,2,0,0,0,.72-.63,3.09,3.09,0,0,0,.45-.93,4.75,4.75,0,0,0,0-2.29,2.88,2.88,0,0,0-.45-.93,2.06,2.06,0,0,0-1.71-.85,2.13,2.13,0,0,0-1,.23,2.25,2.25,0,0,0-.72.62,2.66,2.66,0,0,0-.43.93,4.18,4.18,0,0,0,0,2.29A3,3,0,0,0,89.36,164.64Z"/><path class="cls-1" d="M98,167.42v-9.64h2.37l.13.84a3.18,3.18,0,0,1,1.08-.81,3,3,0,0,1,1.16-.23,3.86,3.86,0,0,1,.72.08,6.62,6.62,0,0,1,.78.22l-.46,2.26a6,6,0,0,0-.75-.25,2.86,2.86,0,0,0-.7-.09,2,2,0,0,0-1,.26,2.24,2.24,0,0,0-.71.6v6.76Z"/><path class="cls-1" d="M105.36,167.42V154.08H108v6.42l3-2.72h3.15l-3.33,3,3.8,6.66h-2.93l-2.77-5-.93.88v4.1Z"/><path class="cls-1" d="M121.15,167.42l-.12-.72a3,3,0,0,1-1.08.69,3.85,3.85,0,0,1-1.42.25,3.77,3.77,0,0,1-1.25-.21,3.34,3.34,0,0,1-1.08-.6,3.08,3.08,0,0,1-.74-1,3,3,0,0,1-.27-1.29,2.51,2.51,0,0,1,.3-1.27,2.84,2.84,0,0,1,.79-.93,4.58,4.58,0,0,1,1.16-.62,7.34,7.34,0,0,1,1.36-.36,8.53,8.53,0,0,1,1.11-.15l1-.09v-.32a1.2,1.2,0,0,0-.41-.94,1.34,1.34,0,0,0-.93-.36,2.8,2.8,0,0,0-.87.18,2.74,2.74,0,0,0-1,.68l-1.78-1.24a3.85,3.85,0,0,1,.87-.8,4.92,4.92,0,0,1,1-.5,5.52,5.52,0,0,1,1-.25,6.38,6.38,0,0,1,.93-.07,5.29,5.29,0,0,1,1.53.21,3.28,3.28,0,0,1,1.22.66,2.9,2.9,0,0,1,.78,1.14,4.39,4.39,0,0,1,.28,1.67v6.2Zm-.23-4.5c-.26,0-.55,0-.85.07s-.58.08-.84.13a2,2,0,0,0-1.18.55,1.27,1.27,0,0,0-.32.85.93.93,0,0,0,.35.77,1.71,1.71,0,0,0,1.07.29,2.46,2.46,0,0,0,1-.2,2.71,2.71,0,0,0,.81-.5Z"/><path class="cls-1" d="M129.1,164.7a.77.77,0,0,0,.21.63.69.69,0,0,0,.41.17,1.68,1.68,0,0,0,.78-.2,3.41,3.41,0,0,0,.66-.42l.94,1.78a6.75,6.75,0,0,1-1.39.71,4.39,4.39,0,0,1-1.55.27,3.63,3.63,0,0,1-1-.14,2.38,2.38,0,0,1-.85-.44,2.19,2.19,0,0,1-.59-.79,2.69,2.69,0,0,1-.24-1.19v-5.3h-1.42v-2h1.42v-2.5h2.6v2.5h2.35v2H129.1Z"/><path class="cls-1" d="M134.74,156.68a1.49,1.49,0,0,1-1.17-.44,1.44,1.44,0,0,1-.39-1,1.41,1.41,0,0,1,.39-1,1.78,1.78,0,0,1,2.34,0,1.41,1.41,0,0,1,.39,1,1.44,1.44,0,0,1-.39,1A1.49,1.49,0,0,1,134.74,156.68Zm-1.3,10.74v-9.64H136v9.64Z"/><path class="cls-1" d="M140.76,167.2a4.59,4.59,0,0,1-1.51-1.16,4.93,4.93,0,0,1-.91-1.63,5.87,5.87,0,0,1-.3-1.85,5.77,5.77,0,0,1,.3-1.84,4.83,4.83,0,0,1,.91-1.61,4.71,4.71,0,0,1,1.52-1.14,4.91,4.91,0,0,1,2.13-.43A4.85,4.85,0,0,1,145,158a4.5,4.5,0,0,1,1.52,1.14,4.67,4.67,0,0,1,.91,1.61,5.77,5.77,0,0,1,.3,1.84,5.87,5.87,0,0,1-.3,1.85,4.75,4.75,0,0,1-.91,1.63A4.43,4.43,0,0,1,145,167.2a4.85,4.85,0,0,1-2.13.44A5,5,0,0,1,140.76,167.2Zm.42-2.56a2,2,0,0,0,.71.63,2.18,2.18,0,0,0,1,.23,2.07,2.07,0,0,0,1-.23,2,2,0,0,0,.72-.63,2.85,2.85,0,0,0,.44-.93,4.45,4.45,0,0,0,0-2.29,2.67,2.67,0,0,0-.44-.93,2.06,2.06,0,0,0-1.71-.85,2.13,2.13,0,0,0-1,.23,2.25,2.25,0,0,0-.72.62,2.86,2.86,0,0,0-.44.93,4.45,4.45,0,0,0,0,2.29A3.31,3.31,0,0,0,141.18,164.64Z"/><path class="cls-1" d="M149.76,167.42v-9.64h2.38l.12.76a4.36,4.36,0,0,1,1.38-.74,5,5,0,0,1,1.56-.26,4.53,4.53,0,0,1,1.47.23,2.83,2.83,0,0,1,1.15.73,3.43,3.43,0,0,1,.75,1.3,6,6,0,0,1,.27,1.92v5.7h-2.62v-5.5a2.67,2.67,0,0,0-.48-1.7,1.61,1.61,0,0,0-1.34-.6,2.21,2.21,0,0,0-1.12.3,5.23,5.23,0,0,0-.9.66v6.84Z"/></g></g></svg>